<svg width="150" height="21" viewBox="0 0 150 21" xmlns="http://www.w3.org/2000/svg" class="fill-black dark:fill-white w-28 lg:w-32"><path fill-rule="evenodd" clip-rule="evenodd" d="M126.959 12.7808C125.907 15.6646 123.111 17.7313 119.816 17.7313C115.621 17.7313 112.22 14.3864 112.22 10.2603C112.22 6.13426 115.621 2.78957 119.816 2.78957C123.111 2.78957 125.907 4.8561 126.959 7.73993H129.912C128.768 3.29747 124.688 0.00567627 119.816 0.00567627C114.058 0.00567627 109.39 4.59693 109.39 10.2603C109.39 15.9239 114.058 20.515 119.816 20.515C124.688 20.515 128.768 17.2232 129.912 12.7808H126.959Z"></path><path fill-rule="evenodd" clip-rule="evenodd" d="M147.217 20.0735V11.3538H136.028V20.0735H133.267V0.44751H136.028V8.83484H147.217V0.44751H149.977V20.0735H147.217Z"></path><path fill-rule="evenodd" clip-rule="evenodd" d="M100.47 2.94408V20.0636H97.7123V2.94408H90.0518V0.423279H108.131V2.94408H100.47Z"></path><path fill-rule="evenodd" clip-rule="evenodd" d="M77.9949 12.058H84.8626L81.4006 3.24881L77.9949 12.058ZM85.8478 14.5788H77.0099L74.8987 20.0636H71.9436L79.8807 0.423279H83.0613L90.9985 20.0636H88.015L85.8478 14.5788Z"></path><path fill-rule="evenodd" clip-rule="evenodd" d="M68.8118 0.423279H71.6569L65.967 20.0636H63.1223L57.9113 4.1353L52.7568 20.0636H49.9965L44.2224 0.423279H47.0674L51.4613 15.7977L56.475 0.423279H59.376L64.5024 15.9639L68.8118 0.423279Z"></path><path fill-rule="evenodd" clip-rule="evenodd" d="M32.0117 17.7306C27.8145 17.7306 24.4122 14.3848 24.4122 10.2576C24.4122 6.13036 27.8145 2.78457 32.0117 2.78457C36.2089 2.78457 39.6114 6.13036 39.6114 10.2576C39.6114 14.3848 36.2089 17.7306 32.0117 17.7306ZM32.0117 0C26.2507 0 21.5803 4.59245 21.5803 10.2576C21.5803 15.9227 26.2507 20.5152 32.0117 20.5152C37.7728 20.5152 42.4432 15.9227 42.4432 10.2576C42.4432 4.59245 37.7728 0 32.0117 0Z"></path><path fill-rule="evenodd" clip-rule="evenodd" d="M14.5482 20.0735L2.76153 3.83018V20.0735H-0.000488281V0.44751H3.69164L14.6608 15.5061V0.44751H17.4228V20.0735H14.5482Z"></path></svg>